<svg viewBox="0 0 1024 1024" xmlns="http://www.w3.org/2000/svg"><rect x="0" y="0" width="45" height="88" rx="5" fill="#8ecae6"/><rect x="47" y="0" width="32" height="88" rx="5" fill="#219ebc"/><rect x="81" y="0" width="33" height="86" rx="5" fill="#023047"/><rect x="116" y="0" width="34" height="85" rx="5" fill="#ffb703"/><rect x="152" y="0" width="34" height="85" rx="5" fill="#fb8500"/><rect x="188" y="0" width="41" height="85" rx="5" fill="#606c38"/><rect x="231" y="0" width="38" height="84" rx="5" fill="#264653"/><rect x="271" y="0" width="40" height="83" rx="5" fill="#cdb4db"/><rect x="313" y="0" width="32" height="82" rx="5" fill="#8ecae6"/><rect x="347" y="0" width="32" height="82" rx="5" fill="#219ebc"/><rect x="381" y="0" width="39" height="82" rx="5" fill="#023047"/><rect x="422" y="0" width="37" height="82" rx="5" fill="#ffb703"/><rect x="461" y="0" width="31" height="81" rx="5" fill="#fb8500"/><rect x="494" y="0" width="28" height="81" rx="5" fill="#606c38"/><rect x="524" y="0" width="36" height="81" rx="5" fill="#264653"/><rect x="562" y="0" width="27" height="80" rx="5" fill="#cdb4db"/><rect x="591" y="0" width="13" height="80" rx="5" fill="#8ecae6"/><rect x="606" y="0" width="27" height="80" rx="5" fill="#219ebc"/><rect x="635" y="0" width="27" height="80" rx="5" fill="#023047"/><rect x="664" y="0" width="19" height="80" rx="5" fill="#ffb703"/><rect x="685" y="0" width="27" height="80" rx="5" fill="#fb8500"/><rect x="714" y="0" width="19" height="80" rx="5" fill="#606c38"/><rect x="735" y="0" width="15" height="80" rx="5" fill="#264653"/><rect x="752" y="0" width="36" height="80" rx="5" fill="#cdb4db"/><rect x="790" y="0" width="27" height="80" rx="5" fill="#8ecae6"/><rect x="819" y="0" width="34" height="80" rx="5" fill="#219ebc"/><rect x="855" y="0" width="31" height="80" rx="5" fill="#023047"/><rect x="888" y="0" width="32" height="80" rx="5" fill="#ffb703"/><rect x="922" y="0" width="14" height="80" rx="5" fill="#fb8500"/><rect x="938" y="0" width="14" height="80" rx="5" fill="#606c38"/><rect x="954" y="0" width="14" height="80" rx="5" fill="#264653"/><rect x="970" y="0" width="31" height="80" rx="5" fill="#cdb4db"/><rect x="1003" y="0" width="17" height="80" rx="5" fill="#8ecae6"/><rect x="0" y="90" width="25" height="80" rx="5" fill="#219ebc"/><rect x="27" y="90" width="32" height="80" rx="5" fill="#023047"/><rect x="61" y="90" width="13" height="80" rx="5" fill="#ffb703"/><rect x="76" y="90" width="12" height="80" rx="5" fill="#fb8500"/><rect x="90" y="90" width="12" height="80" rx="5" fill="#606c38"/><rect x="104" y="90" width="12" height="80" rx="5" fill="#264653"/><rect x="118" y="90" width="22" height="80" rx="5" fill="#cdb4db"/><rect x="142" y="90" width="13" height="80" rx="5" fill="#8ecae6"/><rect x="157" y="90" width="14" height="80" rx="5" fill="#219ebc"/><rect x="173" y="90" width="45" height="80" rx="5" fill="#023047"/><rect x="220" y="90" width="32" height="80" rx="5" fill="#ffb703"/><rect x="254" y="90" width="13" height="80" rx="5" fill="#fb8500"/><rect x="269" y="90" width="14" height="80" rx="5" fill="#606c38"/><rect x="285" y="90" width="27" height="80" rx="5" fill="#264653"/><rect x="314" y="90" width="31" height="80" rx="5" fill="#cdb4db"/><rect x="347" y="90" width="21" height="79" rx="5" fill="#8ecae6"/><rect x="370" y="90" width="31" height="79" rx="5" fill="#219ebc"/><rect x="403" y="90" width="32" height="79" rx="5" fill="#023047"/><rect x="437" y="90" width="28" height="79" rx="5" fill="#ffb703"/><rect x="467" y="90" width="26" height="79" rx="5" fill="#fb8500"/><rect x="495" y="90" width="32" height="79" rx="5" fill="#606c38"/><rect x="529" y="90" width="31" height="79" rx="5" fill="#264653"/><rect x="562" y="90" width="36" height="79" rx="5" fill="#cdb4db"/><rect x="600" y="90" width="43" height="79" rx="5" fill="#8ecae6"/><rect x="645" y="90" width="34" height="79" rx="5" fill="#219ebc"/><rect x="681" y="90" width="39" height="79" rx="5" fill="#023047"/><rect x="722" y="90" width="25" height="79" rx="5" fill="#ffb703"/><rect x="749" y="90" width="33" height="79" rx="5" fill="#fb8500"/><rect x="784" y="90" width="26" height="79" rx="5" fill="#606c38"/><rect x="812" y="90" width="24" height="79" rx="5" fill="#264653"/><rect x="838" y="90" width="26" height="79" rx="5" fill="#cdb4db"/><rect x="866" y="90" width="26" height="79" rx="5" fill="#8ecae6"/><rect x="894" y="90" width="27" height="79" rx="5" fill="#219ebc"/><rect x="923" y="90" width="23" height="79" rx="5" fill="#023047"/><rect x="948" y="90" width="22" height="79" rx="5" fill="#ffb703"/><rect x="972" y="90" width="24" height="79" rx="5" fill="#fb8500"/><rect x="998" y="90" width="25" height="79" rx="5" fill="#606c38"/><rect x="0" y="172" width="26" height="79" rx="5" fill="#264653"/><rect x="28" y="172" width="38" height="79" rx="5" fill="#cdb4db"/><rect x="68" y="172" width="27" height="78" rx="5" fill="#8ecae6"/><rect x="97" y="172" width="28" height="78" rx="5" fill="#219ebc"/><rect x="127" y="172" width="27" height="78" rx="5" fill="#023047"/><rect x="156" y="172" width="28" height="78" rx="5" fill="#ffb703"/><rect x="186" y="172" width="26" height="78" rx="5" fill="#fb8500"/><rect x="214" y="172" width="27" height="78" rx="5" fill="#606c38"/><rect x="243" y="172" width="26" height="78" rx="5" fill="#264653"/><rect x="271" y="172" width="22" height="78" rx="5" fill="#cdb4db"/><rect x="295" y="172" width="37" height="78" rx="5" fill="#8ecae6"/><rect x="334" y="172" width="27" height="78" rx="5" fill="#219ebc"/><rect x="363" y="172" width="30" height="78" rx="5" fill="#023047"/><rect x="395" y="172" width="26" height="78" rx="5" fill="#ffb703"/><rect x="423" y="172" width="27" height="78" rx="5" fill="#fb8500"/><rect x="452" y="172" width="26" height="78" rx="5" fill="#606c38"/><rect x="480" y="172" width="30" height="78" rx="5" fill="#264653"/><rect x="512" y="172" width="33" height="78" rx="5" fill="#cdb4db"/><rect x="547" y="172" width="27" height="78" rx="5" fill="#8ecae6"/><rect x="576" y="172" width="27" height="78" rx="5" fill="#219ebc"/><rect x="605" y="172" width="31" height="78" rx="5" fill="#023047"/><rect x="638" y="172" width="26" height="78" rx="5" fill="#ffb703"/><rect x="666" y="172" width="31" height="77" rx="5" fill="#fb8500"/><rect x="699" y="172" width="35" height="77" rx="5" fill="#606c38"/><rect x="736" y="172" width="27" height="77" rx="5" fill="#264653"/><rect x="765" y="172" width="33" height="77" rx="5" fill="#cdb4db"/><rect x="800" y="172" width="34" height="77" rx="5" fill="#8ecae6"/><rect x="836" y="172" width="36" height="77" rx="5" fill="#219ebc"/><rect x="874" y="172" width="40" height="77" rx="5" fill="#023047"/><rect x="916" y="172" width="24" height="77" rx="5" fill="#ffb703"/><rect x="942" y="172" width="43" height="77" rx="5" fill="#fb8500"/><rect x="987" y="172" width="31" height="77" rx="5" fill="#606c38"/><rect x="0" y="253" width="31" height="76" rx="5" fill="#264653"/><rect x="33" y="253" width="25" height="76" rx="5" fill="#cdb4db"/><rect x="60" y="253" width="30" height="76" rx="5" fill="#8ecae6"/><rect x="92" y="253" width="31" height="76" rx="5" fill="#219ebc"/><rect x="125" y="253" width="32" height="76" rx="5" fill="#023047"/><rect x="159" y="253" width="31" height="76" rx="5" fill="#ffb703"/><rect x="192" y="253" width="31" height="76" rx="5" fill="#fb8500"/><rect x="225" y="253" width="18" height="76" rx="5" fill="#606c38"/><rect x="245" y="253" width="30" height="75" rx="5" fill="#264653"/><rect x="277" y="253" width="39" height="75" rx="5" fill="#cdb4db"/><rect x="318" y="253" width="33" height="75" rx="5" fill="#8ecae6"/><rect x="353" y="253" width="33" height="75" rx="5" fill="#219ebc"/><rect x="388" y="253" width="32" height="75" rx="5" fill="#023047"/><rect x="422" y="253" width="31" height="75" rx="5" fill="#ffb703"/><rect x="455" y="253" width="32" height="75" rx="5" fill="#fb8500"/><rect x="489" y="253" width="36" height="75" rx="5" fill="#606c38"/><rect x="527" y="253" width="31" height="75" rx="5" fill="#264653"/><rect x="560" y="253" width="32" height="75" rx="5" fill="#cdb4db"/><rect x="594" y="253" width="24" height="75" rx="5" fill="#8ecae6"/><rect x="620" y="253" width="33" height="75" rx="5" fill="#219ebc"/><rect x="655" y="253" width="31" height="75" rx="5" fill="#023047"/><rect x="688" y="253" width="37" height="75" rx="5" fill="#ffb703"/><rect x="727" y="253" width="34" height="75" rx="5" fill="#fb8500"/><rect x="763" y="253" width="31" height="75" rx="5" fill="#606c38"/><rect x="796" y="253" width="31" height="75" rx="5" fill="#264653"/><rect x="829" y="253" width="31" height="75" rx="5" fill="#cdb4db"/><rect x="862" y="253" width="31" height="75" rx="5" fill="#8ecae6"/><rect x="895" y="253" width="32" height="75" rx="5" fill="#219ebc"/><rect x="929" y="253" width="36" height="75" rx="5" fill="#023047"/><rect x="967" y="253" width="31" height="75" rx="5" fill="#ffb703"/><rect x="1000" y="253" width="23" height="72" rx="5" fill="#fb8500"/><rect x="0" y="331" width="31" height="75" rx="5" fill="#606c38"/><rect x="33" y="331" width="32" height="75" rx="5" fill="#264653"/><rect x="67" y="331" width="33" height="74" rx="5" fill="#cdb4db"/><rect x="102" y="331" width="34" height="74" rx="5" fill="#8ecae6"/><rect x="138" y="331" width="33" height="74" rx="5" fill="#219ebc"/><rect x="173" y="331" width="31" height="74" rx="5" fill="#023047"/><rect x="206" y="331" width="31" height="74" rx="5" fill="#ffb703"/><rect x="239" y="331" width="31" height="74" rx="5" fill="#fb8500"/><rect x="272" y="331" width="33" height="74" rx="5" fill="#606c38"/><rect x="307" y="331" width="39" height="74" rx="5" fill="#264653"/><rect x="348" y="331" width="33" height="74" rx="5" fill="#cdb4db"/><rect x="383" y="331" width="41" height="74" rx="5" fill="#8ecae6"/><rect x="426" y="331" width="33" height="74" rx="5" fill="#219ebc"/><rect x="461" y="331" width="33" height="74" rx="5" fill="#023047"/><rect x="496" y="331" width="33" height="74" rx="5" fill="#ffb703"/><rect x="531" y="331" width="29" height="74" rx="5" fill="#fb8500"/><rect x="562" y="331" width="33" height="74" rx="5" fill="#606c38"/><rect x="597" y="331" width="33" height="74" rx="5" fill="#264653"/><rect x="632" y="331" width="32" height="74" rx="5" fill="#cdb4db"/><rect x="666" y="331" width="33" height="74" rx="5" fill="#8ecae6"/><rect x="701" y="331" width="33" height="74" rx="5" fill="#219ebc"/><rect x="736" y="331" width="33" height="74" rx="5" fill="#023047"/><rect x="771" y="331" width="29" height="73" rx="5" fill="#ffb703"/><rect x="802" y="331" width="32" height="73" rx="5" fill="#fb8500"/><rect x="836" y="331" width="32" height="73" rx="5" fill="#606c38"/><rect x="870" y="331" width="31" height="73" rx="5" fill="#264653"/><rect x="903" y="331" width="40" height="73" rx="5" fill="#cdb4db"/><rect x="945" y="331" width="32" height="73" rx="5" fill="#8ecae6"/><rect x="979" y="331" width="39" height="72" rx="5" fill="#219ebc"/><rect x="0" y="408" width="41" height="72" rx="5" fill="#023047"/><rect x="43" y="408" width="34" height="72" rx="5" fill="#ffb703"/><rect x="79" y="408" width="36" height="72" rx="5" fill="#fb8500"/><rect x="117" y="408" width="34" height="72" rx="5" fill="#606c38"/><rect x="153" y="408" width="35" height="72" rx="5" fill="#264653"/><rect x="190" y="408" width="35" height="72" rx="5" fill="#cdb4db"/><rect x="227" y="408" width="31" height="71" rx="5" fill="#8ecae6"/><rect x="260" y="408" width="32" height="71" rx="5" fill="#219ebc"/><rect x="294" y="408" width="27" height="71" rx="5" fill="#023047"/><rect x="323" y="408" width="36" height="71" rx="5" fill="#ffb703"/><rect x="361" y="408" width="27" height="71" rx="5" fill="#fb8500"/><rect x="390" y="408" width="35" height="71" rx="5" fill="#606c38"/><rect x="427" y="408" width="31" height="70" rx="5" fill="#264653"/><rect x="460" y="408" width="40" height="69" rx="5" fill="#cdb4db"/><rect x="502" y="408" width="44" height="69" rx="5" fill="#8ecae6"/><rect x="548" y="408" width="32" height="69" rx="5" fill="#219ebc"/><rect x="582" y="408" width="36" height="68" rx="5" fill="#023047"/><rect x="620" y="408" width="29" height="67" rx="5" fill="#ffb703"/><rect x="651" y="408" width="41" height="66" rx="5" fill="#fb8500"/><rect x="694" y="408" width="36" height="65" rx="5" fill="#606c38"/><rect x="732" y="408" width="41" height="65" rx="5" fill="#264653"/><rect x="775" y="408" width="36" height="65" rx="5" fill="#cdb4db"/><rect x="813" y="408" width="37" height="65" rx="5" fill="#8ecae6"/><rect x="852" y="408" width="40" height="64" rx="5" fill="#219ebc"/><rect x="894" y="408" width="35" height="64" rx="5" fill="#023047"/><rect x="931" y="408" width="40" height="64" rx="5" fill="#ffb703"/><rect x="973" y="408" width="29" height="62" rx="5" fill="#fb8500"/><rect x="0" y="482" width="36" height="61" rx="5" fill="#606c38"/><rect x="38" y="482" width="34" height="58" rx="5" fill="#264653"/><rect x="74" y="482" width="40" height="58" rx="5" fill="#cdb4db"/><rect x="116" y="482" width="35" height="57" rx="5" fill="#8ecae6"/><rect x="153" y="482" width="40" height="57" rx="5" fill="#219ebc"/><rect x="195" y="482" width="30" height="57" rx="5" fill="#023047"/><rect x="227" y="482" width="42" height="57" rx="5" fill="#ffb703"/><rect x="271" y="482" width="40" height="57" rx="5" fill="#fb8500"/><rect x="313" y="482" width="40" height="55" rx="5" fill="#606c38"/><rect x="355" y="482" width="39" height="55" rx="5" fill="#264653"/><rect x="396" y="482" width="40" height="55" rx="5" fill="#cdb4db"/><rect x="438" y="482" width="42" height="54" rx="5" fill="#8ecae6"/><rect x="482" y="482" width="44" height="54" rx="5" fill="#219ebc"/><rect x="528" y="482" width="37" height="54" rx="5" fill="#023047"/><rect x="567" y="482" width="41" height="53" rx="5" fill="#ffb703"/><rect x="610" y="482" width="33" height="53" rx="5" fill="#fb8500"/><rect x="645" y="482" width="35" height="53" rx="5" fill="#606c38"/><rect x="682" y="482" width="34" height="53" rx="5" fill="#264653"/><rect x="718" y="482" width="39" height="53" rx="5" fill="#cdb4db"/><rect x="759" y="482" width="36" height="52" rx="5" fill="#8ecae6"/><rect x="797" y="482" width="31" height="51" rx="5" fill="#219ebc"/><rect x="830" y="482" width="48" height="51" rx="5" fill="#023047"/><rect x="880" y="482" width="43" height="50" rx="5" fill="#ffb703"/><rect x="925" y="482" width="38" height="50" rx="5" fill="#fb8500"/><rect x="965" y="482" width="43" height="50" rx="5" fill="#606c38"/><rect x="0" y="545" width="34" height="49" rx="5" fill="#264653"/><rect x="36" y="545" width="30" height="49" rx="5" fill="#cdb4db"/><rect x="68" y="545" width="29" height="48" rx="5" fill="#8ecae6"/><rect x="99" y="545" width="40" height="47" rx="5" fill="#219ebc"/><rect x="141" y="545" width="43" height="46" rx="5" fill="#023047"/><rect x="186" y="545" width="42" height="46" rx="5" fill="#ffb703"/><rect x="230" y="545" width="42" height="46" rx="5" fill="#fb8500"/><rect x="274" y="545" width="44" height="46" rx="5" fill="#606c38"/><rect x="320" y="545" width="32" height="45" rx="5" fill="#264653"/><rect x="354" y="545" width="39" height="45" rx="5" fill="#cdb4db"/><rect x="395" y="545" width="59" height="44" rx="5" fill="#8ecae6"/><rect x="456" y="545" width="32" height="44" rx="5" fill="#219ebc"/><rect x="490" y="545" width="37" height="43" rx="5" fill="#023047"/><rect x="529" y="545" width="42" height="43" rx="5" fill="#ffb703"/><rect x="573" y="545" width="42" height="42" rx="5" fill="#fb8500"/><rect x="617" y="545" width="56" height="42" rx="5" fill="#606c38"/><rect x="675" y="545" width="60" height="41" rx="5" fill="#264653"/><rect x="737" y="545" width="57" height="40" rx="5" fill="#cdb4db"/><rect x="796" y="545" width="42" height="39" rx="5" fill="#8ecae6"/><rect x="840" y="545" width="42" height="39" rx="5" fill="#219ebc"/><rect x="884" y="545" width="35" height="37" rx="5" fill="#023047"/><rect x="921" y="545" width="31" height="32" rx="5" fill="#ffb703"/><rect x="954" y="545" width="38" height="30" rx="5" fill="#fb8500"/><rect x="0" y="596" width="47" height="30" rx="5" fill="#606c38"/><rect x="49" y="596" width="66" height="28" rx="5" fill="#264653"/><rect x="117" y="596" width="49" height="25" rx="5" fill="#cdb4db"/></svg>