<svg viewBox="0 0 1024 1024" xmlns="http://www.w3.org/2000/svg"><rect x="0" y="0" width="45" height="88" rx="5" fill="#8ecae6"/><rect x="47" y="0" width="32" height="88" rx="5" fill="#219ebc"/><rect x="81" y="0" width="33" height="86" rx="5" fill="#023047"/><rect x="116" y="0" width="34" height="85" rx="5" fill="#ffb703"/><rect x="152" y="0" width="34" height="85" rx="5" fill="#fb8500"/><rect x="188" y="0" width="41" height="85" rx="5" fill="#606c38"/><rect x="231" y="0" width="38" height="84" rx="5" fill="#264653"/><rect x="271" y="0" width="40" height="83" rx="5" fill="#cdb4db"/><rect x="313" y="0" width="32" height="82" rx="5" fill="#8ecae6"/><rect x="347" y="0" width="32" height="82" rx="5" fill="#219ebc"/><rect x="381" y="0" width="39" height="82" rx="5" fill="#023047"/><rect x="422" y="0" width="37" height="82" rx="5" fill="#ffb703"/><rect x="461" y="0" width="31" height="81" rx="5" fill="#fb8500"/><rect x="494" y="0" width="36" height="81" rx="5" fill="#606c38"/><rect x="532" y="0" width="28" height="81" rx="5" fill="#264653"/><rect x="562" y="0" width="27" height="80" rx="5" fill="#cdb4db"/><rect x="591" y="0" width="13" height="80" rx="5" fill="#8ecae6"/><rect x="606" y="0" width="27" height="80" rx="5" fill="#219ebc"/><rect x="635" y="0" width="14" height="80" rx="5" fill="#023047"/><rect x="651" y="0" width="17" height="80" rx="5" fill="#ffb703"/><rect x="670" y="0" width="22" height="80" rx="5" fill="#fb8500"/><rect x="694" y="0" width="13" height="80" rx="5" fill="#606c38"/><rect x="709" y="0" width="19" height="80" rx="5" fill="#264653"/><rect x="730" y="0" width="14" height="80" rx="5" fill="#cdb4db"/><rect x="746" y="0" width="27" height="80" rx="5" fill="#8ecae6"/><rect x="775" y="0" width="32" height="80" rx="5" fill="#219ebc"/><rect x="809" y="0" width="14" height="80" rx="5" fill="#023047"/><rect x="825" y="0" width="45" height="80" rx="5" fill="#ffb703"/><rect x="872" y="0" width="15" height="80" rx="5" fill="#fb8500"/><rect x="889" y="0" width="19" height="80" rx="5" fill="#606c38"/><rect x="910" y="0" width="27" height="80" rx="5" fill="#264653"/><rect x="939" y="0" width="25" height="80" rx="5" fill="#cdb4db"/><rect x="966" y="0" width="31" height="80" rx="5" fill="#8ecae6"/><rect x="999" y="0" width="14" height="80" rx="5" fill="#219ebc"/><rect x="0" y="90" width="13" height="80" rx="5" fill="#023047"/><rect x="15" y="90" width="12" height="80" rx="5" fill="#ffb703"/><rect x="29" y="90" width="32" height="80" rx="5" fill="#fb8500"/><rect x="63" y="90" width="12" height="80" rx="5" fill="#606c38"/><rect x="77" y="90" width="34" height="80" rx="5" fill="#264653"/><rect x="113" y="90" width="31" height="80" rx="5" fill="#cdb4db"/><rect x="146" y="90" width="32" height="80" rx="5" fill="#8ecae6"/><rect x="180" y="90" width="12" height="80" rx="5" fill="#219ebc"/><rect x="194" y="90" width="13" height="80" rx="5" fill="#023047"/><rect x="209" y="90" width="14" height="80" rx="5" fill="#ffb703"/><rect x="225" y="90" width="31" height="80" rx="5" fill="#fb8500"/><rect x="258" y="90" width="36" height="80" rx="5" fill="#606c38"/><rect x="296" y="90" width="27" height="80" rx="5" fill="#264653"/><rect x="325" y="90" width="27" height="80" rx="5" fill="#cdb4db"/><rect x="354" y="90" width="43" height="79" rx="5" fill="#8ecae6"/><rect x="399" y="90" width="26" height="79" rx="5" fill="#219ebc"/><rect x="427" y="90" width="26" height="79" rx="5" fill="#023047"/><rect x="455" y="90" width="25" height="79" rx="5" fill="#ffb703"/><rect x="482" y="90" width="25" height="79" rx="5" fill="#fb8500"/><rect x="509" y="90" width="26" height="79" rx="5" fill="#606c38"/><rect x="537" y="90" width="21" height="79" rx="5" fill="#264653"/><rect x="560" y="90" width="26" height="79" rx="5" fill="#cdb4db"/><rect x="588" y="90" width="24" height="79" rx="5" fill="#8ecae6"/><rect x="614" y="90" width="36" height="79" rx="5" fill="#219ebc"/><rect x="652" y="90" width="22" height="79" rx="5" fill="#023047"/><rect x="676" y="90" width="32" height="79" rx="5" fill="#ffb703"/><rect x="710" y="90" width="32" height="79" rx="5" fill="#fb8500"/><rect x="744" y="90" width="23" height="79" rx="5" fill="#606c38"/><rect x="769" y="90" width="38" height="79" rx="5" fill="#264653"/><rect x="809" y="90" width="31" height="79" rx="5" fill="#cdb4db"/><rect x="842" y="90" width="27" height="79" rx="5" fill="#8ecae6"/><rect x="871" y="90" width="26" height="79" rx="5" fill="#219ebc"/><rect x="899" y="90" width="33" height="79" rx="5" fill="#023047"/><rect x="934" y="90" width="31" height="79" rx="5" fill="#ffb703"/><rect x="967" y="90" width="24" height="79" rx="5" fill="#fb8500"/><rect x="993" y="90" width="28" height="79" rx="5" fill="#606c38"/><rect x="0" y="172" width="34" height="79" rx="5" fill="#264653"/><rect x="36" y="172" width="39" height="79" rx="5" fill="#cdb4db"/><rect x="77" y="172" width="30" height="78" rx="5" fill="#8ecae6"/><rect x="109" y="172" width="26" height="78" rx="5" fill="#219ebc"/><rect x="137" y="172" width="27" height="78" rx="5" fill="#023047"/><rect x="166" y="172" width="26" height="78" rx="5" fill="#ffb703"/><rect x="194" y="172" width="28" height="78" rx="5" fill="#fb8500"/><rect x="224" y="172" width="27" height="78" rx="5" fill="#606c38"/><rect x="253" y="172" width="27" height="78" rx="5" fill="#264653"/><rect x="282" y="172" width="22" height="78" rx="5" fill="#cdb4db"/><rect x="306" y="172" width="26" height="78" rx="5" fill="#8ecae6"/><rect x="334" y="172" width="30" height="78" rx="5" fill="#219ebc"/><rect x="366" y="172" width="27" height="78" rx="5" fill="#023047"/><rect x="395" y="172" width="27" height="78" rx="5" fill="#ffb703"/><rect x="424" y="172" width="37" height="78" rx="5" fill="#fb8500"/><rect x="463" y="172" width="26" height="78" rx="5" fill="#606c38"/><rect x="491" y="172" width="26" height="78" rx="5" fill="#264653"/><rect x="519" y="172" width="27" height="78" rx="5" fill="#cdb4db"/><rect x="548" y="172" width="27" height="78" rx="5" fill="#8ecae6"/><rect x="577" y="172" width="28" height="78" rx="5" fill="#219ebc"/><rect x="607" y="172" width="31" height="78" rx="5" fill="#023047"/><rect x="640" y="172" width="33" height="78" rx="5" fill="#ffb703"/><rect x="675" y="172" width="24" height="77" rx="5" fill="#fb8500"/><rect x="701" y="172" width="36" height="77" rx="5" fill="#606c38"/><rect x="739" y="172" width="27" height="77" rx="5" fill="#264653"/><rect x="768" y="172" width="33" height="77" rx="5" fill="#cdb4db"/><rect x="803" y="172" width="31" height="77" rx="5" fill="#8ecae6"/><rect x="836" y="172" width="31" height="77" rx="5" fill="#219ebc"/><rect x="869" y="172" width="40" height="77" rx="5" fill="#023047"/><rect x="911" y="172" width="34" height="77" rx="5" fill="#ffb703"/><rect x="947" y="172" width="43" height="77" rx="5" fill="#fb8500"/><rect x="992" y="172" width="31" height="76" rx="5" fill="#606c38"/><rect x="0" y="253" width="35" height="77" rx="5" fill="#264653"/><rect x="37" y="253" width="18" height="76" rx="5" fill="#cdb4db"/><rect x="57" y="253" width="32" height="76" rx="5" fill="#8ecae6"/><rect x="91" y="253" width="31" height="76" rx="5" fill="#219ebc"/><rect x="124" y="253" width="30" height="76" rx="5" fill="#023047"/><rect x="156" y="253" width="31" height="76" rx="5" fill="#ffb703"/><rect x="189" y="253" width="31" height="76" rx="5" fill="#fb8500"/><rect x="222" y="253" width="25" height="76" rx="5" fill="#606c38"/><rect x="249" y="253" width="31" height="75" rx="5" fill="#264653"/><rect x="282" y="253" width="31" height="75" rx="5" fill="#cdb4db"/><rect x="315" y="253" width="24" height="75" rx="5" fill="#8ecae6"/><rect x="341" y="253" width="32" height="75" rx="5" fill="#219ebc"/><rect x="375" y="253" width="33" height="75" rx="5" fill="#023047"/><rect x="410" y="253" width="30" height="75" rx="5" fill="#ffb703"/><rect x="442" y="253" width="39" height="75" rx="5" fill="#fb8500"/><rect x="483" y="253" width="33" height="75" rx="5" fill="#606c38"/><rect x="518" y="253" width="33" height="75" rx="5" fill="#264653"/><rect x="553" y="253" width="32" height="75" rx="5" fill="#cdb4db"/><rect x="587" y="253" width="31" height="75" rx="5" fill="#8ecae6"/><rect x="620" y="253" width="37" height="75" rx="5" fill="#219ebc"/><rect x="659" y="253" width="31" height="75" rx="5" fill="#023047"/><rect x="692" y="253" width="32" height="75" rx="5" fill="#ffb703"/><rect x="726" y="253" width="34" height="75" rx="5" fill="#fb8500"/><rect x="762" y="253" width="31" height="75" rx="5" fill="#606c38"/><rect x="795" y="253" width="31" height="75" rx="5" fill="#264653"/><rect x="828" y="253" width="32" height="75" rx="5" fill="#cdb4db"/><rect x="862" y="253" width="31" height="75" rx="5" fill="#8ecae6"/><rect x="895" y="253" width="31" height="75" rx="5" fill="#219ebc"/><rect x="928" y="253" width="32" height="75" rx="5" fill="#023047"/><rect x="962" y="253" width="31" height="75" rx="5" fill="#ffb703"/><rect x="995" y="253" width="29" height="74" rx="5" fill="#fb8500"/><rect x="0" y="332" width="36" height="75" rx="5" fill="#606c38"/><rect x="38" y="332" width="36" height="75" rx="5" fill="#264653"/><rect x="76" y="332" width="31" height="74" rx="5" fill="#cdb4db"/><rect x="109" y="332" width="33" height="74" rx="5" fill="#8ecae6"/><rect x="144" y="332" width="33" height="74" rx="5" fill="#219ebc"/><rect x="179" y="332" width="33" height="74" rx="5" fill="#023047"/><rect x="214" y="332" width="39" height="74" rx="5" fill="#ffb703"/><rect x="255" y="332" width="33" height="74" rx="5" fill="#fb8500"/><rect x="290" y="332" width="33" height="74" rx="5" fill="#606c38"/><rect x="325" y="332" width="41" height="74" rx="5" fill="#264653"/><rect x="368" y="332" width="31" height="74" rx="5" fill="#cdb4db"/><rect x="401" y="332" width="33" height="74" rx="5" fill="#8ecae6"/><rect x="436" y="332" width="31" height="74" rx="5" fill="#219ebc"/><rect x="469" y="332" width="33" height="74" rx="5" fill="#023047"/><rect x="504" y="332" width="34" height="74" rx="5" fill="#ffb703"/><rect x="540" y="332" width="33" height="74" rx="5" fill="#fb8500"/><rect x="575" y="332" width="32" height="74" rx="5" fill="#606c38"/><rect x="609" y="332" width="33" height="74" rx="5" fill="#264653"/><rect x="644" y="332" width="33" height="74" rx="5" fill="#cdb4db"/><rect x="679" y="332" width="33" height="74" rx="5" fill="#8ecae6"/><rect x="714" y="332" width="33" height="74" rx="5" fill="#219ebc"/><rect x="749" y="332" width="32" height="73" rx="5" fill="#023047"/><rect x="783" y="332" width="31" height="73" rx="5" fill="#ffb703"/><rect x="816" y="332" width="32" height="73" rx="5" fill="#fb8500"/><rect x="850" y="332" width="29" height="73" rx="5" fill="#606c38"/><rect x="881" y="332" width="32" height="73" rx="5" fill="#264653"/><rect x="915" y="332" width="40" height="73" rx="5" fill="#cdb4db"/><rect x="957" y="332" width="35" height="72" rx="5" fill="#8ecae6"/><rect x="994" y="332" width="23" height="72" rx="5" fill="#219ebc"/><rect x="0" y="409" width="35" height="72" rx="5" fill="#023047"/><rect x="37" y="409" width="36" height="72" rx="5" fill="#ffb703"/><rect x="75" y="409" width="41" height="72" rx="5" fill="#fb8500"/><rect x="118" y="409" width="34" height="72" rx="5" fill="#606c38"/><rect x="154" y="409" width="34" height="72" rx="5" fill="#264653"/><rect x="190" y="409" width="39" height="72" rx="5" fill="#cdb4db"/><rect x="231" y="409" width="27" height="71" rx="5" fill="#8ecae6"/><rect x="260" y="409" width="27" height="71" rx="5" fill="#219ebc"/><rect x="289" y="409" width="32" height="71" rx="5" fill="#023047"/><rect x="323" y="409" width="35" height="71" rx="5" fill="#ffb703"/><rect x="360" y="409" width="31" height="71" rx="5" fill="#fb8500"/><rect x="393" y="409" width="36" height="71" rx="5" fill="#606c38"/><rect x="431" y="409" width="31" height="70" rx="5" fill="#264653"/><rect x="464" y="409" width="44" height="69" rx="5" fill="#cdb4db"/><rect x="510" y="409" width="32" height="69" rx="5" fill="#8ecae6"/><rect x="544" y="409" width="40" height="69" rx="5" fill="#219ebc"/><rect x="586" y="409" width="36" height="68" rx="5" fill="#023047"/><rect x="624" y="409" width="29" height="67" rx="5" fill="#ffb703"/><rect x="655" y="409" width="41" height="66" rx="5" fill="#fb8500"/><rect x="698" y="409" width="37" height="65" rx="5" fill="#606c38"/><rect x="737" y="409" width="41" height="65" rx="5" fill="#264653"/><rect x="780" y="409" width="36" height="65" rx="5" fill="#cdb4db"/><rect x="818" y="409" width="36" height="65" rx="5" fill="#8ecae6"/><rect x="856" y="409" width="40" height="64" rx="5" fill="#219ebc"/><rect x="898" y="409" width="40" height="64" rx="5" fill="#023047"/><rect x="940" y="409" width="35" height="64" rx="5" fill="#ffb703"/><rect x="977" y="409" width="29" height="62" rx="5" fill="#fb8500"/><rect x="0" y="483" width="36" height="61" rx="5" fill="#606c38"/><rect x="38" y="483" width="40" height="58" rx="5" fill="#264653"/><rect x="80" y="483" width="34" height="58" rx="5" fill="#cdb4db"/><rect x="116" y="483" width="30" height="57" rx="5" fill="#8ecae6"/><rect x="148" y="483" width="35" height="57" rx="5" fill="#219ebc"/><rect x="185" y="483" width="42" height="57" rx="5" fill="#023047"/><rect x="229" y="483" width="40" height="57" rx="5" fill="#ffb703"/><rect x="271" y="483" width="40" height="57" rx="5" fill="#fb8500"/><rect x="313" y="483" width="40" height="55" rx="5" fill="#606c38"/><rect x="355" y="483" width="39" height="55" rx="5" fill="#264653"/><rect x="396" y="483" width="40" height="55" rx="5" fill="#cdb4db"/><rect x="438" y="483" width="42" height="54" rx="5" fill="#8ecae6"/><rect x="482" y="483" width="44" height="54" rx="5" fill="#219ebc"/><rect x="528" y="483" width="37" height="54" rx="5" fill="#023047"/><rect x="567" y="483" width="33" height="53" rx="5" fill="#ffb703"/><rect x="602" y="483" width="39" height="53" rx="5" fill="#fb8500"/><rect x="643" y="483" width="35" height="53" rx="5" fill="#606c38"/><rect x="680" y="483" width="41" height="53" rx="5" fill="#264653"/><rect x="723" y="483" width="34" height="53" rx="5" fill="#cdb4db"/><rect x="759" y="483" width="36" height="52" rx="5" fill="#8ecae6"/><rect x="797" y="483" width="31" height="51" rx="5" fill="#219ebc"/><rect x="830" y="483" width="48" height="51" rx="5" fill="#023047"/><rect x="880" y="483" width="43" height="50" rx="5" fill="#ffb703"/><rect x="925" y="483" width="43" height="50" rx="5" fill="#fb8500"/><rect x="970" y="483" width="38" height="50" rx="5" fill="#606c38"/><rect x="0" y="546" width="30" height="49" rx="5" fill="#264653"/><rect x="32" y="546" width="34" height="49" rx="5" fill="#cdb4db"/><rect x="68" y="546" width="29" height="48" rx="5" fill="#8ecae6"/><rect x="99" y="546" width="40" height="47" rx="5" fill="#219ebc"/><rect x="141" y="546" width="43" height="46" rx="5" fill="#023047"/><rect x="186" y="546" width="44" height="46" rx="5" fill="#ffb703"/><rect x="232" y="546" width="42" height="46" rx="5" fill="#fb8500"/><rect x="276" y="546" width="42" height="46" rx="5" fill="#606c38"/><rect x="320" y="546" width="32" height="45" rx="5" fill="#264653"/><rect x="354" y="546" width="39" height="45" rx="5" fill="#cdb4db"/><rect x="395" y="546" width="32" height="44" rx="5" fill="#8ecae6"/><rect x="429" y="546" width="59" height="44" rx="5" fill="#219ebc"/><rect x="490" y="546" width="42" height="43" rx="5" fill="#023047"/><rect x="534" y="546" width="37" height="43" rx="5" fill="#ffb703"/><rect x="573" y="546" width="56" height="42" rx="5" fill="#fb8500"/><rect x="631" y="546" width="42" height="42" rx="5" fill="#606c38"/><rect x="675" y="546" width="60" height="41" rx="5" fill="#264653"/><rect x="737" y="546" width="57" height="40" rx="5" fill="#cdb4db"/><rect x="796" y="546" width="42" height="39" rx="5" fill="#8ecae6"/><rect x="840" y="546" width="42" height="39" rx="5" fill="#219ebc"/><rect x="884" y="546" width="35" height="37" rx="5" fill="#023047"/><rect x="921" y="546" width="31" height="32" rx="5" fill="#ffb703"/><rect x="954" y="546" width="38" height="30" rx="5" fill="#fb8500"/><rect x="0" y="597" width="47" height="30" rx="5" fill="#606c38"/><rect x="49" y="597" width="66" height="28" rx="5" fill="#264653"/><rect x="117" y="597" width="49" height="25" rx="5" fill="#cdb4db"/></svg>